<svg xmlns="http://www.w3.org/2000/svg" xmlns:xlink="http://www.w3.org/1999/xlink" version="1.1" width="256" height="256" viewBox="0 0 256 256" xml:space="preserve">

<defs>
</defs>
<g style="stroke: none; stroke-width: 0; stroke-dasharray: none; stroke-linecap: butt; stroke-linejoin: miter; stroke-miterlimit: 10; fill: none; fill-rule: nonzero; opacity: 1;" transform="translate(1.4065934065934016 1.4065934065934016) scale(2.81 2.81)" >
	<path d="M 85.419 38.713 H 70.365 V 11.886 h -64.9 c -2.466 0 -4.466 1.999 -4.466 4.466 v 10.182 v 54.021 c 0 2.207 1.789 3.996 3.996 3.996 H 68.29 c 1.59 0 3.028 -0.942 3.663 -2.4 l 16.746 -38.43 C 89.729 41.357 87.997 38.713 85.419 38.713 z" style="stroke: none; stroke-width: 1; stroke-dasharray: none; stroke-linecap: butt; stroke-linejoin: miter; stroke-miterlimit: 10; fill: rgb(255,196,49); fill-rule: nonzero; opacity: 1;" transform=" matrix(1 0 0 1 0 0) " stroke-linecap="round" />
	<path d="M 70.365 38.713 V 5.45 H 12.368 V 58.46 l 7.378 -16.902 c 0.754 -1.728 2.461 -2.845 4.346 -2.845 H 70.365 z" style="stroke: none; stroke-width: 1; stroke-dasharray: none; stroke-linecap: butt; stroke-linejoin: miter; stroke-miterlimit: 10; fill: rgb(226,222,208); fill-rule: nonzero; opacity: 1;" transform=" matrix(1 0 0 1 0 0) " stroke-linecap="round" />
	<path d="M 12.368 41.676 c -0.552 0 -1 -0.448 -1 -1 V 5.45 c 0 -0.552 0.448 -1 1 -1 h 57.997 c 0.553 0 1 0.448 1 1 v 23.619 c 0 0.552 -0.447 1 -1 1 s -1 -0.448 -1 -1 V 6.45 H 13.368 v 34.227 C 13.368 41.228 12.92 41.676 12.368 41.676 z" style="stroke: none; stroke-width: 1; stroke-dasharray: none; stroke-linecap: butt; stroke-linejoin: miter; stroke-miterlimit: 10; fill: rgb(0,0,0); fill-rule: nonzero; opacity: 1;" transform=" matrix(1 0 0 1 0 0) " stroke-linecap="round" />
	<path d="M 40.591 16.993 H 21.639 c -0.552 0 -1 -0.448 -1 -1 c 0 -0.552 0.448 -1 1 -1 h 18.952 c 0.552 0 1 0.448 1 1 C 41.591 16.546 41.143 16.993 40.591 16.993 z" style="stroke: none; stroke-width: 1; stroke-dasharray: none; stroke-linecap: butt; stroke-linejoin: miter; stroke-miterlimit: 10; fill: rgb(0,0,0); fill-rule: nonzero; opacity: 1;" transform=" matrix(1 0 0 1 0 0) " stroke-linecap="round" />
	<path d="M 58.568 26.98 H 21.639 c -0.552 0 -1 -0.448 -1 -1 s 0.448 -1 1 -1 h 36.929 c 0.553 0 1 0.448 1 1 S 59.121 26.98 58.568 26.98 z" style="stroke: none; stroke-width: 1; stroke-dasharray: none; stroke-linecap: butt; stroke-linejoin: miter; stroke-miterlimit: 10; fill: rgb(0,0,0); fill-rule: nonzero; opacity: 1;" transform=" matrix(1 0 0 1 0 0) " stroke-linecap="round" />
	<path d="M 68.29 85.551 H 4.995 c -2.754 0 -4.996 -2.241 -4.996 -4.996 V 16.352 c 0 -3.014 2.452 -5.466 5.466 -5.466 c 0.552 0 1 0.448 1 1 s -0.448 1 -1 1 c -1.911 0 -3.466 1.555 -3.466 3.466 v 64.203 c 0 1.652 1.344 2.996 2.996 2.996 H 68.29 c 1.192 0 2.271 -0.706 2.746 -1.8 l 16.747 -38.43 c 0.354 -0.812 0.278 -1.702 -0.207 -2.443 c -0.485 -0.74 -1.272 -1.165 -2.156 -1.165 H 24.096 c -1.5 0 -2.855 0.888 -3.453 2.262 L 8.961 68.78 c -0.221 0.505 -0.812 0.736 -1.316 0.518 c -0.506 -0.221 -0.738 -0.811 -0.517 -1.316 l 11.68 -26.804 c 0.916 -2.104 2.991 -3.463 5.287 -3.463 h 61.323 c 1.549 0 2.981 0.773 3.829 2.069 c 0.849 1.296 0.986 2.918 0.368 4.338 L 72.87 82.55 C 72.076 84.373 70.278 85.551 68.29 85.551 z" style="stroke: none; stroke-width: 1; stroke-dasharray: none; stroke-linecap: butt; stroke-linejoin: miter; stroke-miterlimit: 10; fill: rgb(0,0,0); fill-rule: nonzero; opacity: 1;" transform=" matrix(1 0 0 1 0 0) " stroke-linecap="round" />
</g>
</svg>